HIERARCHY
ROOT Hips
{
	OFFSET 0.00000 0.00000 0.00000
	CHANNELS 6 Xposition Yposition Zposition Zrotation Yrotation Xrotation 
	JOINT LHipJoint
	{
		OFFSET 0 0 0
		CHANNELS 3 Zrotation Yrotation Xrotation
		JOINT LeftHip
		{
			OFFSET 1.38615 -1.80049 0.80104
			CHANNELS 3 Zrotation Yrotation Xrotation
			JOINT LeftKnee
			{
				OFFSET 2.50172 -6.87341 0.00000
				CHANNELS 3 Zrotation Yrotation Xrotation
				JOINT LeftAnkle
				{
					OFFSET 2.67523 -7.35014 0.00000
					CHANNELS 3 Zrotation Yrotation Xrotation
					JOINT LeftToe
					{
						OFFSET 0.17446 -0.47932 2.13155
						CHANNELS 3 Zrotation Yrotation Xrotation
						End Site
						{
							OFFSET 0.00000 -0.00000 1.10023
						}
					}
				}
			}
		}
	}
	JOINT RHipJoint
	{
		OFFSET 0 0 0
		CHANNELS 3 Zrotation Yrotation Xrotation
		JOINT RightHip
		{
			OFFSET -1.18047 -1.80049 0.80104
			CHANNELS 3 Zrotation Yrotation Xrotation
			JOINT RightKnee
			{
				OFFSET -2.59789 -7.13765 0.00000
				CHANNELS 3 Zrotation Yrotation Xrotation
				JOINT RightAnkle
				{
					OFFSET -2.62125 -7.20183 0.00000
					CHANNELS 3 Zrotation Yrotation Xrotation
					JOINT RightToe
					{
						OFFSET -0.31287 -0.85960 2.07814
						CHANNELS 3 Zrotation Yrotation Xrotation
						End Site
						{
							OFFSET -0.00000 -0.00000 1.11766
						}
					}
				}
			}
		}
	}
	JOINT lowerback
	{
		OFFSET 0 0 0
		CHANNELS 3 Zrotation Yrotation Xrotation
		JOINT Chest
		{
			OFFSET -0.01587 2.16157 -0.12309
			CHANNELS 3 Zrotation Yrotation Xrotation
			JOINT Chest2
			{
				OFFSET 0.04727 2.16674 -0.03569
				CHANNELS 3 Zrotation Yrotation Xrotation
				JOINT lowerneck
				{
					OFFSET 0 0 0
					CHANNELS 3 Zrotation Yrotation Xrotation
					JOINT Neck
					{
						OFFSET -0.08586 1.60335 0.32783
						CHANNELS 3 Zrotation Yrotation Xrotation
						JOINT Head
						{
							OFFSET 0.07583 1.65857 -0.31618
							CHANNELS 3 Zrotation Yrotation Xrotation
							End Site
							{
								OFFSET 0.03386 1.69434 -0.14584
							}
						}
					}
				}
				JOINT LeftCollar
				{
					OFFSET 0 0 0
					CHANNELS 3 Zrotation Yrotation Xrotation
					JOINT LeftShoulder
					{
						OFFSET 3.17393 1.01901 -0.52897
CHANNELS 3 Zrotation Xrotation Yrotation
						JOINT LeftElbow
						{
OFFSET 0 -5.252870 -0.000000
CHANNELS 3 Zrotation Xrotation Yrotation
							JOINT LeftWrist
							{
OFFSET 0 -3.510140 0.000000
CHANNELS 3 Zrotation Xrotation Yrotation
								JOINT lhand
								{
									OFFSET 0 0 0
CHANNELS 3 Zrotation Xrotation Yrotation
									JOINT LFingers
									{
OFFSET 0 -0.706180 -0.000000
CHANNELS 3 Zrotation Xrotation Yrotation
										End Site
										{
OFFSET 0 -0.569340 -0.000000
										}
									}
								}
								JOINT LThumb
								{
OFFSET 0 0.000000 0.000000
CHANNELS 3 Zrotation Xrotation Yrotation
									End Site
									{
OFFSET 0 -0.578030 0.578030
									}
								}
							}
						}
					}
				}
				JOINT RightCollar
				{
					OFFSET 0 0 0
					CHANNELS 3 Zrotation Yrotation Xrotation
					JOINT RightShoulder
					{
						OFFSET -2.99471 1.26495 -0.61125
CHANNELS 3 Zrotation Xrotation Yrotation
						JOINT RightElbow
						{
OFFSET 0 -5.287210 -0.000000
CHANNELS 3 Zrotation Xrotation Yrotation
							JOINT RightWrist
							{
OFFSET 0 -3.505440 0.000000
CHANNELS 3 Zrotation Xrotation Yrotation
								JOINT rhand
								{
									OFFSET 0 0 0
CHANNELS 3 Zrotation Xrotation Yrotation
									JOINT RFingers
									{
OFFSET 0 -0.885000 -0.000000
CHANNELS 3 Zrotation Xrotation Yrotation
										End Site
										{
OFFSET 0 -0.713510 -0.000000
										}
									}
								}
								JOINT RThumb
								{
OFFSET 0 0.000000 0.000000
CHANNELS 3 Zrotation Xrotation Yrotation
									End Site
									{
OFFSET 0 -0.724400 0.724400
									}
								}
							}
						}
					}
				}
			}
		}
	}
}
MOTION
Frames: 5
Frame Time: 0.008333333333333333
17.546700 13.053700 9.855900 133.917000 -85.850300 -157.121000 0.000000 0.000000 0.000000 -8.503200 -2.141200 -48.778900 13.378400 18.914600 70.296800 -0.177200 -7.474200 1.979800 0.034700 -1.202100 -3.305100 0.000000 0.000000 0.000000 3.680500 8.967700 -47.132600 -11.874000 -18.336900 65.588800 -0.026000 -1.274700 2.868300 -0.170500 2.659900 -7.333200 -0.805400 4.223800 27.452200 2.024300 3.722800 14.587800 1.696200 1.064500 0.966700 -3.680900 6.798400 -21.697400 -4.890400 11.421700 16.220300 0.474500 4.538300 8.735000 0.000000 -0.000000 0.000000 0.604500 -25.695700 -56.145800 41.825500 -49.115000 19.808500 16.766300 25.725300 -30.745000 0.000000 0.000000 0.000000 -7.125000 0.000000 0.000000 -17.330400 60.993700 6.870900 0.000000 -0.000000 0.000000 -9.214700 -22.783200 40.701100 -46.194400 -51.340400 -23.167700 -2.162900 7.828400 -20.208700 0.000000 0.000000 0.000000 7.125000 0.000000 -0.000000 16.758400 10.402200 14.089700
17.550474 13.059990 9.857158 134.922691 -85.918080 -158.111751 0.000000 0.000000 0.000000 -8.402945 -2.169429 -48.769543 13.372503 18.912556 70.278479 -0.171539 -7.345953 2.058588 0.015671 -0.777256 -2.136249 0.000000 0.000000 0.000000 3.783743 9.116549 -47.041073 -11.847344 -18.325420 65.504193 -0.025135 -1.453586 2.844160 -0.193303 2.829664 -7.804986 -0.659854 4.247704 27.371918 2.116849 3.793804 14.595427 1.699267 1.106410 1.012621 -4.376628 6.550162 -21.942414 -4.243345 11.201297 16.547012 0.778566 4.443785 8.805689 0.000000 0.000000 0.000000 0.439925 -25.702462 -56.379334 41.842091 -49.124200 19.821081 17.148604 25.888538 -30.837077 0.000000 0.000000 0.000000 -7.125000 0.000000 0.000000 -16.982693 61.174945 6.801233 0.000000 0.000000 0.000000 -9.483540 -22.826997 40.545646 -46.118914 -51.305016 -23.108805 -2.051480 7.394592 -20.150670 0.000000 0.000000 0.000000 7.125000 0.000000 0.000000 16.830347 10.463925 14.133891
17.549954 13.059982 9.858130 136.281117 -86.022164 -159.467262 0.000000 0.000000 0.000000 -8.261061 -2.205273 -48.795917 13.381952 18.915779 70.307685 -0.168282 -7.264832 2.252302 0.010729 -0.669645 -1.840245 0.000000 0.000000 0.000000 3.980437 8.982809 -47.067278 -11.837924 -18.321327 65.474157 -0.026790 -1.395578 2.923665 -0.254930 3.233287 -8.930248 -0.515052 4.225741 27.335613 2.132494 3.802736 14.589312 1.633390 1.120148 1.030425 -4.624451 6.448114 -22.157824 -3.848472 11.091410 16.819211 0.945662 4.404529 8.895275 0.000000 0.000000 0.000000 0.471301 -25.716898 -56.423045 41.824726 -49.114560 19.807951 17.311194 25.916752 -30.750496 0.000000 0.000000 0.000000 -7.125000 0.000000 0.000000 -16.740235 61.131722 6.684439 0.000000 0.000000 0.000000 -9.634076 -22.881618 40.643864 -46.173013 -51.330330 -23.151036 -1.924828 6.597113 -20.056794 0.000000 0.000000 0.000000 7.125000 0.000000 0.000000 16.913461 10.560581 14.175619
17.548046 13.057659 9.857272 137.641601 -86.083264 -160.858392 0.000000 0.000000 0.000000 -8.136664 -2.177090 -48.800379 13.392820 18.919461 70.341276 -0.167108 -7.230659 2.468982 0.013771 -0.752024 -2.066770 0.000000 0.000000 0.000000 4.169328 8.807287 -47.089715 -11.834469 -18.319810 65.463049 -0.029133 -1.276984 3.032802 -0.304053 3.544608 -9.798949 -0.454159 4.199547 27.327743 2.115314 3.784519 14.576344 1.585036 1.115978 1.025032 -4.653189 6.467166 -22.229346 -3.655604 11.100869 16.945906 1.020796 4.422468 8.935632 0.000000 0.000000 0.000000 0.587144 -25.690156 -56.322515 41.805708 -49.104028 19.793554 17.307190 25.873329 -30.689382 0.000000 0.000000 0.000000 -7.125000 0.000000 0.000000 -16.698679 61.072283 6.643488 0.000000 0.000000 0.000000 -9.670544 -22.906967 40.909609 -46.252282 -51.367419 -23.212913 -1.856274 5.729389 -19.831920 0.000000 0.000000 0.000000 7.125000 0.000000 0.000000 16.966930 10.779314 14.145360
17.546802 13.056410 9.853985 138.589125 -86.056806 -161.882654 0.000000 0.000000 0.000000 -8.079965 -2.054966 -48.740534 13.395016 18.920158 70.348046 -0.168259 -7.252505 2.596685 0.019394 -0.899491 -2.472217 0.000000 0.000000 0.000000 4.279620 8.748135 -47.027713 -11.829050 -18.317470 65.445803 -0.030829 -1.215143 3.114714 -0.316970 3.618857 -10.006716 -0.535082 4.202334 27.342281 2.100728 3.768661 14.564231 1.618130 1.103338 1.000617 -4.557820 6.573865 -22.132644 -3.688778 11.215104 16.915093 1.006699 4.482157 8.914888 0.000000 0.000000 0.000000 0.686209 -25.608040 -56.139540 41.793681 -49.097406 19.784453 17.213056 25.808498 -30.752515 0.000000 0.000000 0.000000 -7.125000 0.000000 0.000000 -16.848991 61.109734 6.720262 0.000000 0.000000 0.000000 -9.674404 -22.908197 41.266469 -46.299164 -51.389308 -23.249518 -1.870448 4.923250 -19.410145 0.000000 0.000000 0.000000 7.125000 0.000000 0.000000 16.979051 11.181930 14.009406
